<mxfile host="app.diagrams.net" agent="Mozilla/5.0 (X11; CrOS x86_64 14541.0.0) AppleWebKit/537.36 (KHTML, like Gecko) Chrome/134.0.0.0 Safari/537.36" version="26.2.13">
  <diagram id="C5RBs43oDa-KdzZeNtuy" name="Page-1">
    <mxGraphModel dx="2443" dy="1018" grid="1" gridSize="10" guides="1" tooltips="1" connect="1" arrows="1" fold="1" page="1" pageScale="1" pageWidth="827" pageHeight="1169" math="0" shadow="0">
      <root>
        <mxCell id="WIyWlLk6GJQsqaUBKTNV-0" />
        <mxCell id="WIyWlLk6GJQsqaUBKTNV-1" parent="WIyWlLk6GJQsqaUBKTNV-0" />
        <mxCell id="FJqHGg9sg7Mp6TtYDS_j-4" value="Alunos" style="swimlane;fontStyle=1;align=center;verticalAlign=top;childLayout=stackLayout;horizontal=1;startSize=26;horizontalStack=0;resizeParent=1;resizeParentMax=0;resizeLast=0;collapsible=1;marginBottom=0;whiteSpace=wrap;html=1;" vertex="1" parent="WIyWlLk6GJQsqaUBKTNV-1">
          <mxGeometry x="-640" y="190" width="220" height="260" as="geometry">
            <mxRectangle x="-640" y="190" width="80" height="30" as="alternateBounds" />
          </mxGeometry>
        </mxCell>
        <mxCell id="FJqHGg9sg7Mp6TtYDS_j-5" value="- nomeCompleto: String" style="text;strokeColor=none;fillColor=none;align=left;verticalAlign=top;spacingLeft=4;spacingRight=4;overflow=hidden;rotatable=0;points=[[0,0.5],[1,0.5]];portConstraint=eastwest;whiteSpace=wrap;html=1;" vertex="1" parent="FJqHGg9sg7Mp6TtYDS_j-4">
          <mxGeometry y="26" width="220" height="26" as="geometry" />
        </mxCell>
        <mxCell id="FJqHGg9sg7Mp6TtYDS_j-8" value="- dataNascimento: int" style="text;strokeColor=none;fillColor=none;align=left;verticalAlign=top;spacingLeft=4;spacingRight=4;overflow=hidden;rotatable=0;points=[[0,0.5],[1,0.5]];portConstraint=eastwest;whiteSpace=wrap;html=1;" vertex="1" parent="FJqHGg9sg7Mp6TtYDS_j-4">
          <mxGeometry y="52" width="220" height="26" as="geometry" />
        </mxCell>
        <mxCell id="FJqHGg9sg7Mp6TtYDS_j-9" value="- endereco: object {}" style="text;strokeColor=none;fillColor=none;align=left;verticalAlign=top;spacingLeft=4;spacingRight=4;overflow=hidden;rotatable=0;points=[[0,0.5],[1,0.5]];portConstraint=eastwest;whiteSpace=wrap;html=1;" vertex="1" parent="FJqHGg9sg7Mp6TtYDS_j-4">
          <mxGeometry y="78" width="220" height="26" as="geometry" />
        </mxCell>
        <mxCell id="FJqHGg9sg7Mp6TtYDS_j-11" value="- contatosResponsaveis: object" style="text;strokeColor=none;fillColor=none;align=left;verticalAlign=top;spacingLeft=4;spacingRight=4;overflow=hidden;rotatable=0;points=[[0,0.5],[1,0.5]];portConstraint=eastwest;whiteSpace=wrap;html=1;" vertex="1" parent="FJqHGg9sg7Mp6TtYDS_j-4">
          <mxGeometry y="104" width="220" height="26" as="geometry" />
        </mxCell>
        <mxCell id="FJqHGg9sg7Mp6TtYDS_j-12" value="- turma: String" style="text;strokeColor=none;fillColor=none;align=left;verticalAlign=top;spacingLeft=4;spacingRight=4;overflow=hidden;rotatable=0;points=[[0,0.5],[1,0.5]];portConstraint=eastwest;whiteSpace=wrap;html=1;" vertex="1" parent="FJqHGg9sg7Mp6TtYDS_j-4">
          <mxGeometry y="130" width="220" height="26" as="geometry" />
        </mxCell>
        <mxCell id="FJqHGg9sg7Mp6TtYDS_j-17" value="- turno: &#39;MANHA&#39; | &#39;TARDE&#39; | &#39;NOITE&#39;" style="text;strokeColor=none;fillColor=none;align=left;verticalAlign=top;spacingLeft=4;spacingRight=4;overflow=hidden;rotatable=0;points=[[0,0.5],[1,0.5]];portConstraint=eastwest;whiteSpace=wrap;html=1;" vertex="1" parent="FJqHGg9sg7Mp6TtYDS_j-4">
          <mxGeometry y="156" width="220" height="26" as="geometry" />
        </mxCell>
        <mxCell id="FJqHGg9sg7Mp6TtYDS_j-18" value="- rota: String []" style="text;strokeColor=none;fillColor=none;align=left;verticalAlign=top;spacingLeft=4;spacingRight=4;overflow=hidden;rotatable=0;points=[[0,0.5],[1,0.5]];portConstraint=eastwest;whiteSpace=wrap;html=1;" vertex="1" parent="FJqHGg9sg7Mp6TtYDS_j-4">
          <mxGeometry y="182" width="220" height="26" as="geometry" />
        </mxCell>
        <mxCell id="FJqHGg9sg7Mp6TtYDS_j-20" value="- documentos: Documento []" style="text;strokeColor=none;fillColor=none;align=left;verticalAlign=top;spacingLeft=4;spacingRight=4;overflow=hidden;rotatable=0;points=[[0,0.5],[1,0.5]];portConstraint=eastwest;whiteSpace=wrap;html=1;" vertex="1" parent="FJqHGg9sg7Mp6TtYDS_j-4">
          <mxGeometry y="208" width="220" height="26" as="geometry" />
        </mxCell>
        <mxCell id="FJqHGg9sg7Mp6TtYDS_j-21" value="- historicoPagamentos: Pagamento []" style="text;strokeColor=none;fillColor=none;align=left;verticalAlign=top;spacingLeft=4;spacingRight=4;overflow=hidden;rotatable=0;points=[[0,0.5],[1,0.5]];portConstraint=eastwest;whiteSpace=wrap;html=1;" vertex="1" parent="FJqHGg9sg7Mp6TtYDS_j-4">
          <mxGeometry y="234" width="220" height="26" as="geometry" />
        </mxCell>
        <mxCell id="FJqHGg9sg7Mp6TtYDS_j-22" value="Pagamentos" style="swimlane;fontStyle=1;align=center;verticalAlign=top;childLayout=stackLayout;horizontal=1;startSize=26;horizontalStack=0;resizeParent=1;resizeParentMax=0;resizeLast=0;collapsible=1;marginBottom=0;whiteSpace=wrap;html=1;" vertex="1" parent="WIyWlLk6GJQsqaUBKTNV-1">
          <mxGeometry x="-170" y="250" width="440" height="212" as="geometry">
            <mxRectangle x="-290" y="180" width="80" height="30" as="alternateBounds" />
          </mxGeometry>
        </mxCell>
        <mxCell id="FJqHGg9sg7Mp6TtYDS_j-23" value="- id: int" style="text;strokeColor=none;fillColor=none;align=left;verticalAlign=top;spacingLeft=4;spacingRight=4;overflow=hidden;rotatable=0;points=[[0,0.5],[1,0.5]];portConstraint=eastwest;whiteSpace=wrap;html=1;" vertex="1" parent="FJqHGg9sg7Mp6TtYDS_j-22">
          <mxGeometry y="26" width="440" height="26" as="geometry" />
        </mxCell>
        <mxCell id="FJqHGg9sg7Mp6TtYDS_j-24" value="- valor: float" style="text;strokeColor=none;fillColor=none;align=left;verticalAlign=top;spacingLeft=4;spacingRight=4;overflow=hidden;rotatable=0;points=[[0,0.5],[1,0.5]];portConstraint=eastwest;whiteSpace=wrap;html=1;" vertex="1" parent="FJqHGg9sg7Mp6TtYDS_j-22">
          <mxGeometry y="52" width="440" height="26" as="geometry" />
        </mxCell>
        <mxCell id="FJqHGg9sg7Mp6TtYDS_j-25" value="- taxa: float" style="text;strokeColor=none;fillColor=none;align=left;verticalAlign=top;spacingLeft=4;spacingRight=4;overflow=hidden;rotatable=0;points=[[0,0.5],[1,0.5]];portConstraint=eastwest;whiteSpace=wrap;html=1;" vertex="1" parent="FJqHGg9sg7Mp6TtYDS_j-22">
          <mxGeometry y="78" width="440" height="26" as="geometry" />
        </mxCell>
        <mxCell id="FJqHGg9sg7Mp6TtYDS_j-26" value="- dataPagamento: DateTime" style="text;strokeColor=none;fillColor=none;align=left;verticalAlign=top;spacingLeft=4;spacingRight=4;overflow=hidden;rotatable=0;points=[[0,0.5],[1,0.5]];portConstraint=eastwest;whiteSpace=wrap;html=1;" vertex="1" parent="FJqHGg9sg7Mp6TtYDS_j-22">
          <mxGeometry y="104" width="440" height="26" as="geometry" />
        </mxCell>
        <mxCell id="FJqHGg9sg7Mp6TtYDS_j-27" value="- metodoPagamento: &#39;CASH&#39; | &#39;MTCX EXPRESS&#39; | &#39;TRANS&#39; | &#39;TRANSEXPRESS&#39;" style="text;strokeColor=none;fillColor=none;align=left;verticalAlign=top;spacingLeft=4;spacingRight=4;overflow=hidden;rotatable=0;points=[[0,0.5],[1,0.5]];portConstraint=eastwest;whiteSpace=wrap;html=1;" vertex="1" parent="FJqHGg9sg7Mp6TtYDS_j-22">
          <mxGeometry y="130" width="440" height="30" as="geometry" />
        </mxCell>
        <mxCell id="FJqHGg9sg7Mp6TtYDS_j-28" value="- estado: &#39;PAGO&#39; | &#39;PENDENTE&#39; | &#39;CANCELADO&#39; | &#39;VENCIDO&#39;" style="text;strokeColor=none;fillColor=none;align=left;verticalAlign=top;spacingLeft=4;spacingRight=4;overflow=hidden;rotatable=0;points=[[0,0.5],[1,0.5]];portConstraint=eastwest;whiteSpace=wrap;html=1;" vertex="1" parent="FJqHGg9sg7Mp6TtYDS_j-22">
          <mxGeometry y="160" width="440" height="26" as="geometry" />
        </mxCell>
        <mxCell id="FJqHGg9sg7Mp6TtYDS_j-29" value="- descricao: String" style="text;strokeColor=none;fillColor=none;align=left;verticalAlign=top;spacingLeft=4;spacingRight=4;overflow=hidden;rotatable=0;points=[[0,0.5],[1,0.5]];portConstraint=eastwest;whiteSpace=wrap;html=1;" vertex="1" parent="FJqHGg9sg7Mp6TtYDS_j-22">
          <mxGeometry y="186" width="440" height="26" as="geometry" />
        </mxCell>
      </root>
    </mxGraphModel>
  </diagram>
</mxfile>
